<?xml version="1.0" encoding="iso-8859-1"?>
<!-- Generator: Adobe Illustrator 19.0.0, SVG Export Plug-In . SVG Version: 6.00 Build 0)  -->
<svg version="1.1" id="Layer_1" xmlns="http://www.w3.org/2000/svg" xmlns:xlink="http://www.w3.org/1999/xlink" x="0px" y="0px"
	 viewBox="0 0 309.537 309.537" style="enable-background:new 0 0 309.537 309.537;" xml:space="preserve">
<g>
	<path style="fill:#F4B459;" d="M270.744,0.271V0c0,0-156.827,0.193-212.573,0.251c-10.931,0-19.378,8.215-19.378,19.378v289.899
		h212.621c10.67,0,19.329-8.659,19.329-19.329V19.59h19.329V0.261C290.073,0.261,270.744,0.271,270.744,0.271z"/>
	<path style="fill:#D07C40;" d="M232.086,290.208c0-10.67,8.659-19.329,19.329-19.329H19.464c-10.67,0-19.329,8.659-19.329,19.329
		s8.659,19.329,19.329,19.329h231.95C240.745,309.538,232.086,300.878,232.086,290.208z"/>
	<path style="fill:#D07C40;" d="M290.073,0.271c-10.67,0-19.329,8.659-19.329,19.329v19.329h19.329
		c10.67,0,19.329-8.659,19.329-19.329C309.402,8.92,300.743,0.271,290.073,0.271z"/>
	<path style="fill:#FFFFFF;" d="M190.624,116.207c-2.764,0-6.939,2.619-6.939,7.316v53.194c0,4.687,4.175,7.316,6.939,7.316
		c2.774,0,6.949-2.619,6.949-7.316v-53.194C197.573,118.836,193.398,116.207,190.624,116.207z M145.52,123.948
		c-1.575-4.465-4.987-7.712-9.868-7.712c-4.707,0-8.302,3.431-9.868,7.712l-18.556,50.517c-0.184,0.464-0.638,1.575-0.638,3.064
		c0,3.711,3.131,6.504,6.823,6.504c3.789,0,5.731-2.049,6.649-4.929l2.774-8.64h25.64l2.774,8.727
		c0.928,2.783,2.861,4.832,6.727,4.832c3.421,0,6.369-2.522,6.369-6.137c0-0.648-0.193-1.952-0.735-3.431
		C163.612,174.456,145.52,123.948,145.52,123.948z M126.78,157.649l8.766-26.926h0.184l8.582,26.926H126.78z"/>
</g>
<g>
</g>
<g>
</g>
<g>
</g>
<g>
</g>
<g>
</g>
<g>
</g>
<g>
</g>
<g>
</g>
<g>
</g>
<g>
</g>
<g>
</g>
<g>
</g>
<g>
</g>
<g>
</g>
<g>
</g>
</svg>
