<?xml version="1.0" encoding="iso-8859-1"?>
<!-- Generator: Adobe Illustrator 19.0.0, SVG Export Plug-In . SVG Version: 6.00 Build 0)  -->
<svg version="1.1" id="Layer_1" xmlns="http://www.w3.org/2000/svg" xmlns:xlink="http://www.w3.org/1999/xlink" x="0px" y="0px"
	 viewBox="0 0 512 512" style="enable-background:new 0 0 512 512;" xml:space="preserve">
<g>
	<path style="fill:#F3D49D;" d="M94.909,198.227c-32.366-9.232-60.152,20.681-60.152,50.355c0,33.913,41.816,130.981,83.632,105.976
		L94.909,198.227z"/>
	<path style="fill:#F3D49D;" d="M277.519,512c-56.296,0-108.299-33.471-146.434-94.248
		c-33.868-53.977-53.291-123.923-53.291-191.905c0-62.118,15.968-115.889,46.176-155.5C159.067,24.326,212.163,0,277.519,0
		s118.452,24.326,153.55,70.347c30.208,39.611,46.175,93.381,46.175,155.5c0,67.981-19.424,137.928-53.291,191.905
		C385.819,478.529,333.813,512,277.519,512z"/>
</g>
<path style="fill:#D7D7D7;" d="M431.069,70.347C395.971,24.326,342.875,0,277.519,0v512c56.294,0,108.3-33.471,146.433-94.248
	c33.868-53.977,53.291-123.923,53.291-191.905C477.245,163.729,461.277,109.958,431.069,70.347z"/>
<path style="fill:#8B8B8B;" d="M364.854,301.739c-29.668,0-53.806-24.137-53.806-53.807c0-29.668,24.137-53.806,53.806-53.806
	c29.668,0,53.807,24.137,53.807,53.806C418.661,277.602,394.522,301.739,364.854,301.739z"/>
<circle style="fill:#444444;" cx="364.856" cy="247.93" r="20.901"/>
<rect x="227.05" y="381.507" style="fill:#6F6F6F;" width="100.942" height="33.391"/>
<path style="fill:#E79C25;" d="M226.014,210.991c-11.058-4.27-23.925-6.527-37.21-6.527s-26.152,2.257-37.21,6.527l-12.03-31.149
	c14.856-5.737,31.882-8.77,49.239-8.77s34.384,3.033,49.239,8.77L226.014,210.991z"/>
<g>
	<path style="fill:#8B8B8B;" d="M464.413,322.902l-118.834,21.434l-22.908,160.221c12.518-4.21,24.651-10.18,36.279-17.825
		l16.272-113.812l77.664-14.009C457.301,347.215,461.154,335.174,464.413,322.902z"/>
	<path style="fill:#8B8B8B;" d="M413.302,50.356c-10.101-9.748-21.261-18.125-33.391-25.095v127.722h33.391V50.356z"/>
	<path style="fill:#8B8B8B;" d="M277.519,179.16l67.168-38.02V9.853c-10.617-3.371-21.762-5.885-33.391-7.529v119.348
		l-33.776,19.119L277.519,179.16L277.519,179.16z"/>
</g>
<path style="fill:#466F70;" d="M209.202,244.722c-5.138,0-9.304-4.165-9.304-9.304c0-3.712,2.179-6.906,5.324-8.4
	c-4.526-3.563-10.232-5.693-16.439-5.693c-14.696,0-26.608,11.913-26.608,26.608s11.913,26.608,26.608,26.608
	s26.608-11.913,26.608-26.608c0-1.766-0.176-3.491-0.504-5.161C213.313,243.99,211.344,244.722,209.202,244.722z"/>
<g>
</g>
<g>
</g>
<g>
</g>
<g>
</g>
<g>
</g>
<g>
</g>
<g>
</g>
<g>
</g>
<g>
</g>
<g>
</g>
<g>
</g>
<g>
</g>
<g>
</g>
<g>
</g>
<g>
</g>
</svg>
